#!OML:ASF E:/inclinewalkrobotboard/Project1/Captureday1/Session1/subject1.ASF
:FULLY-SPECIFIED
:DEGREES
88
root 0 0 0 -1.4008926051486554 21.56483230718749 8.708859293106114
lowerback -4.107281432000709 -6.072168266305098 -6.434245172497669
upperback -8.438096110160354 -7.5178970190026035 6.982908505176598
thorax -6.098493000122876 -2.6142801682130354 11.011278138516653
lowerneck -5.552488487374402 -8.887343330634119 -7.678353144839125
upperneck 32.23259026749934 -11.471924902916061 1.8663674385589908
head 12.13062788399112 -5.8410599980399125 0.36509899187448724
rclavicle -4.0315630288827835E-15 -2.6652574463515727E-15
rhumerus -19.140741633903765 -26.875750826821427 -16.60638848771592
rradius 62.14651650068188
rwrist -11.927959972828148
rhand -26.610203419365064 32.32453534496941
rfingers 7.1250199999999655
rthumb -0.02396453337267701 1.5435664412939438
lclavicle -1.1685026251269132E-15 -3.9613172457725196E-15
lhumerus 27.875076140728922 6.622596013054581 36.40451520311731
lradius 62.79193659474498
lwrist -10.843480998675494
lhand -13.839132037345149 7.2020181608966425
lfingers 7.125019999999979
lthumb 12.13906804552523 35.52340015467458
rfemur 141.451165130763 -157.36106810137733 -122.72908889699679
rtibia 28.444799283387972
rfoot -13.6984478344602 -50.72804096107467
rtoes 4.721357332922548
lfemur -82.12448783635061 23.984347613050303 -57.53849919940182
ltibia 68.07076628649844
lfoot 12.25569234225041 32.346686430010514
ltoes -0.006852297761051673
89
root 0 0 0 -1.4077249142907462 21.56667305145793 8.681610124808868
lowerback -4.0869483307214205 -6.070388364951963 -6.417408942458045
upperback -8.427067348566421 -7.51586489296672 6.98347417739547
thorax -6.096753775662531 -2.615568741390958 11.002445373962786
lowerneck -5.563103174554238 -8.887237622541459 -7.679268798191893
upperneck 32.22808036301514 -11.471697745995787 1.8661515573077903
head 12.131400331558416 -5.841013022142798 0.3651558560350697
rclavicle -3.979775932043193E-15 -2.622955670283476E-15
rhumerus -19.10168437826308 -26.89260697739546 -16.616004997831325
rradius 62.1972293810207
rwrist -11.992735958672895
rhand -26.610872131297327 32.33510123573148
rfingers 7.1250199999999655
rthumb -0.02510977972185202 1.5556583890046731
lclavicle -8.915395511623106E-16 -3.952808842256782E-15
lhumerus 26.62300086220671 5.98856237401316 37.75131547427696
lradius 63.00099130605561
lwrist -10.038542653837856
lhand -14.018429257665685 7.241553490460301
lfingers 7.125019999999976
lthumb 11.964239606413194 35.54867987972487
rfemur 140.71351905829388 -156.55105934061027 -121.99513634290274
rtibia 28.45949308630545
rfoot -13.622672111381174 -50.580644689571145
rtoes 4.711135551891651
lfemur -82.0765343387492 23.988651819536358 -57.4196930820526
ltibia 68.13823372130163
lfoot 12.289277549094098 32.23878732828993
ltoes -0.0012770767603722533
90
root 0 0 0 -1.4236161920654027 21.551218210432307 8.656696922168285
lowerback -4.056898269905391 -6.067906022030391 -6.400176705129056
upperback -8.411684197162806 -7.513144687651945 6.982523520619049
thorax -6.0963742068570905 -2.616380940597897 10.99180440667497
lowerneck -5.575742657752965 -8.884236267431756 -7.677598610417882
upperneck 32.21735820282852 -11.467557706124099 1.8670459229424863
head 12.129970585500846 -5.839043238016316 0.3655159499202304
rclavicle -3.93113890822857E-15 -2.575609513838399E-15
rhumerus -19.092779145032587 -26.911201775990666 -16.62147962027909
rradius 62.252196562602656
rwrist -12.057759123416496
rhand -26.61324974060133 32.3528429894342
rfingers 7.1250199999999655
rthumb -0.027964558096222447 1.5752133508642174
lclavicle -5.999932873063994E-16 -3.959510497810472E-15
lhumerus 25.06088860952157 5.1942486087597635 39.50627701252277
lradius 63.25489597740926
lwrist -8.992913380829183
lhand -14.253890658392596 7.295856159605286
lfingers 7.125019999999972
lthumb 11.734955895424223 35.585997419011036
rfemur 139.69487824928433 -155.48381316130724 -120.98603210141081
rtibia 28.425766750725415
rfoot -13.639031744568529 -50.25752198662089
rtoes 4.628152361371125
lfemur -82.05576909879217 23.981831038088302 -57.32668882094439
ltibia 68.11674478144486
lfoot 12.414568467390193 32.16412283217038
ltoes 0.028685173876088044
91
root 0 0 0 -1.4191933824442948 21.544119540478643 8.637826818663298
lowerback -4.051441064224994 -6.066977073036645 -6.38974481775899
upperback -8.407556793750235 -7.5121242324708195 6.983292127468168
thorax -6.094042069744189 -2.6173933435661025 10.986816145516745
lowerneck -5.581112846008602 -8.884519614588807 -7.678076343904544
upperneck 32.21986102540226 -11.468615658851656 1.8676514865951177
head 12.132355240154103 -5.839393179789791 0.36575815504225906
rclavicle -3.876991149308221E-15 -2.5361218752835236E-15
rhumerus -19.04656123333539 -26.920440777218325 -16.63317914842478
rradius 62.287456428691
rwrist -12.107031471227863
rhand -26.612600238265365 32.357064370637175
rfingers 7.1250199999999655
rthumb -0.02766335625732097 1.5805866800380777
lclavicle -3.5900606126509437E-16 -3.928046936500343E-15
lhumerus 24.2984996771334 4.769052948969463 40.28519804181846
lradius 63.397597002701545
lwrist -8.495508158263322
lhand -14.313320070256955 7.325917487321714
lfingers 7.12501999999997
lthumb 11.675687651488504 35.59741739114783
rfemur 139.46634884372745 -155.2565009298757 -120.77409740057796
rtibia 28.460873415897254
rfoot -13.663517227643855 -50.17110941207268
rtoes 4.644693607175398
lfemur -82.03193990829851 23.99084744990958 -57.25898675125454
ltibia 68.18490419279794
lfoot 12.4040759768646 32.1014563246552
ltoes 0.022202587735586476
